<svg class="lds-gear" width="200px"  height="200px"  xmlns="http://www.w3.org/2000/svg" xmlns:xlink="http://www.w3.org/1999/xlink" viewBox="0 0 100 100" preserveAspectRatio="xMidYMid" style="background: none;"><g transform="translate(50 50)">
<g transform="rotate(114.202)">
<animateTransform attributeName="transform" type="rotate" values="0;360" keyTimes="0;1" dur="4s" repeatCount="indefinite"></animateTransform><path d="M34.48187929913333 -6 L48.48187929913333 -6 L48.48187929913333 6 L34.48187929913333 6 A35 35 0 0 1 32.86218344327823 12.044787226860034 L32.86218344327823 12.044787226860034 L44.98653909626037 19.04478722686003 L38.98653909626037 29.437092072273295 L26.862183443278226 22.437092072273295 A35 35 0 0 1 22.437092072273302 26.862183443278223 L22.437092072273302 26.862183443278223 L29.437092072273302 38.986539096260366 L19.044787226860038 44.986539096260366 L12.044787226860036 32.86218344327823 A35 35 0 0 1 6.000000000000005 34.48187929913333 L6.000000000000005 34.48187929913333 L6.000000000000006 48.48187929913333 L-6 48.48187929913333 L-6.000000000000001 34.48187929913333 A35 35 0 0 1 -12.044787226860024 32.86218344327823 L-12.044787226860024 32.86218344327823 L-19.04478722686002 44.98653909626037 L-29.43709207227329 38.98653909626037 L-22.437092072273295 26.862183443278226 A35 35 0 0 1 -26.862183443278212 22.437092072273312 L-26.862183443278212 22.437092072273312 L-38.98653909626035 29.437092072273316 L-44.98653909626036 19.04478722686005 L-32.86218344327822 12.044787226860045 A35 35 0 0 1 -34.48187929913333 6.000000000000007 L-34.48187929913333 6.000000000000007 L-48.48187929913333 6.000000000000009 L-48.48187929913333 -5.999999999999997 L-34.48187929913333 -5.999999999999999 A35 35 0 0 1 -32.86218344327823 -12.044787226860022 L-32.86218344327823 -12.044787226860022 L-44.98653909626037 -19.044787226860016 L-38.98653909626037 -29.43709207227329 L-26.862183443278226 -22.437092072273295 A35 35 0 0 1 -22.437092072273316 -26.86218344327821 L-22.437092072273316 -26.86218344327821 L-29.437092072273323 -38.986539096260344 L-19.044787226860056 -44.98653909626036 L-12.044787226860048 -32.86218344327822 A35 35 0 0 1 -6.000000000000009 -34.48187929913333 L-6.000000000000009 -34.48187929913333 L-6.0000000000000115 -48.48187929913333 L5.999999999999994 -48.48187929913333 L5.9999999999999964 -34.48187929913333 A35 35 0 0 1 12.044787226860008 -32.862183443278234 L12.044787226860008 -32.862183443278234 L19.04478722686 -44.98653909626038 L29.437092072273273 -38.98653909626039 L22.43709207227328 -26.862183443278237 A35 35 0 0 1 26.86218344327821 -22.437092072273316 L26.86218344327821 -22.437092072273316 L38.986539096260344 -29.437092072273323 L44.98653909626035 -19.04478722686006 L32.86218344327821 -12.04478722686005 A35 35 0 0 1 34.48187929913333 -6.0000000000000115 M0 -20A20 20 0 1 0 0 20 A20 20 0 1 0 0 -20" fill="#28292f"></path></g></g></svg>